# xmcd
# Copyright (C) 1995-1998 Ti Kan
#
# Track frame offsets:
#       150
#       14984
#       27976
#       45540
#       58502
#
# Disc length: 1010 seconds
#
# Revision: 0
# Processed by: cddbd v1.4PL0 Copyright (c) Steve Scherf et al.
# Submitted via: CD-Transfer v1.0
#
DISCID=3e03f005
DTITLE=Patricia Camen - Street Life Remixes
DYEAR=2003
DGENRE=
TTITLE0=Street Life
TTITLE1=He's Mine
TTITLE2=Count The Love
TTITLE3=Naturally
TTITLE4=Don't Wana Live
EXTD=
EXTT0=
EXTT1=
EXTT2=
EXTT3=
EXTT4=
PLAYORDER=
